<?xml version="1.0" encoding="UTF-8"?>
<svg xmlns="http://www.w3.org/2000/svg" viewBox="-64.92 1.5 109.92 46" width="611.73" height="256" role="img" aria-label="دیده‌بان — عملیات"><title>دیده‌بان — عملیات</title><path d="M-57.51 10.41L-55.78 12.15L-57.51 13.86L-59.24 12.15L-57.51 10.41ZM-57.39 21Q-55.99 21 -55.2 20.56Q-54.4 20.11 -54.06 19.34Q-53.71 18.59 -53.71 17.63Q-53.71 16.6 -54.04 15.5Q-54.38 14.4 -54.79 13.37L-52.23 12.42Q-51.68 13.86 -51.46 15.09Q-51.22 16.29 -51.22 17.55Q-51.22 20.43 -52.8 22.08Q-54.38 23.76 -57.39 23.76Q-59.46 23.76 -60.8 22.97Q-62.14 22.18 -62.79 20.8Q-63.42 19.44 -63.42 17.73Q-63.42 16.58 -63.19 15.36Q-62.93 14.14 -62.46 12.92L-60.13 13.8Q-60.49 14.83 -60.72 15.79Q-60.96 16.76 -60.96 17.61Q-60.96 18.53 -60.62 19.3Q-60.31 20.07 -59.52 20.54Q-58.75 21 -57.39 21ZM-49.13 6L-46.53 6L-46.53 14.81Q-46.53 15.81 -46.24 16.27Q-45.94 16.72 -45 16.72L-44.76 16.72L-44.76 19.5L-45 19.5Q-47.16 19.5 -48.15 18.38Q-49.13 17.27 -49.13 15.03L-49.13 6ZM-43.42 19.5L-45.15 19.5L-45.15 16.72L-43.42 16.72Q-42.69 16.72 -42.41 16.27Q-42.14 15.81 -42.14 15.11Q-42.14 14.45 -42.3 13.67Q-42.45 12.9 -42.61 12.15L-40.09 11.5Q-39.91 12.41 -39.81 13.29Q-39.69 14.18 -39.69 14.99Q-39.69 16.27 -40.03 17.29Q-40.38 18.32 -41.19 18.91Q-42.02 19.5 -43.42 19.5ZM-43.18 20.64L-41.45 22.38L-43.18 24.09L-44.9 22.38L-43.18 20.64ZM-36.09 11.99L-36.46 11.66L-34.85 9.59Q-33.98 10.26 -33.13 10.95Q-32.26 11.66 -31.57 12.39Q-30.86 13.13 -30.43 13.94Q-30.02 14.77 -30.02 15.7Q-30.02 16.86 -30.53 17.71Q-31.04 18.55 -31.97 19.01Q-32.87 19.46 -34.06 19.46Q-36.05 19.46 -37.09 18.48Q-38.12 17.51 -38.12 16.03Q-38.12 14.83 -37.53 13.9Q-36.93 12.96 -36.09 11.99ZM-32.46 15.72Q-32.46 15.4 -32.74 15.03Q-33.01 14.63 -33.41 14.28Q-33.82 13.9 -34.18 13.63Q-34.51 13.92 -34.87 14.32Q-35.2 14.69 -35.44 15.09Q-35.65 15.46 -35.65 15.79Q-35.65 16.23 -35.24 16.46Q-34.81 16.72 -34.08 16.72Q-32.46 16.72 -32.46 15.72ZM-22.96 15.34Q-22.96 15.11 -23.06 14.71Q-23.18 14.32 -23.28 14.06L-25.19 9.86L-22.9 8.74L-20.5 14.26Q-20.22 14.93 -19.99 15.48Q-19.77 16.05 -19.47 16.39Q-19.18 16.72 -18.7 16.72L-18.31 16.72L-18.31 19.5L-18.7 19.5Q-19.79 19.5 -20.46 19.09Q-21.11 18.67 -21.6 18.04Q-22.35 18.73 -23.36 19.11Q-24.36 19.5 -25.8 19.5Q-26.65 19.5 -27.24 19.44Q-27.81 19.38 -28.44 19.22L-28.44 16.45Q-27.85 16.58 -27.18 16.66Q-26.51 16.74 -25.94 16.74Q-25.23 16.74 -24.54 16.62Q-23.87 16.5 -23.41 16.19Q-22.96 15.87 -22.96 15.34ZM-16.64 19.5L-18.7 19.5L-18.7 16.72L-16.64 16.72Q-15.91 16.72 -15.63 16.27Q-15.35 15.81 -15.35 15.11Q-15.35 14.45 -15.51 13.67Q-15.67 12.9 -15.83 12.15L-13.32 11.5Q-13.13 12.41 -13.03 13.29Q-12.91 14.18 -12.91 14.99Q-12.91 16.27 -13.25 17.29Q-13.6 18.32 -14.41 18.91Q-15.24 19.5 -16.64 19.5ZM-18.47 20.74L-16.83 22.36L-15.22 20.74L-13.56 22.38L-15.22 24.01L-16.83 22.38L-18.47 24.01L-20.1 22.38L-18.47 20.74ZM-8.75 16.74Q-7.96 16.74 -7.2 16.64Q-6.45 16.52 -5.95 16.21Q-5.46 15.91 -5.46 15.32Q-5.46 14.71 -6.03 14.02Q-6.62 13.35 -7.57 12.68Q-8.54 12.01 -9.66 11.48L-8.48 8.98Q-7.45 9.49 -6.49 10.1Q-5.5 10.73 -4.71 11.48Q-3.92 12.25 -3.47 13.17Q-3 14.1 -3 15.2Q-3 16.74 -3.69 17.69Q-4.4 18.63 -5.66 19.07Q-6.92 19.48 -8.59 19.48Q-9.36 19.48 -10.03 19.42Q-10.7 19.38 -11.33 19.22L-11.33 16.46Q-10.7 16.58 -9.99 16.66Q-9.26 16.74 -8.75 16.74Z" fill="#6b4bb5"/><path d="M-30.69 29.63L-30.69 29.63Q-30.69 30.2 -30.88 30.69Q-31.07 31.17 -31.42 31.52Q-31.77 31.87 -32.26 32.05Q-32.75 32.25 -33.35 32.25L-33.35 32.25L-35.35 32.25L-35.35 27L-33.35 27Q-32.75 27 -32.26 27.2Q-31.77 27.39 -31.42 27.73Q-31.07 28.08 -30.88 28.57Q-30.69 29.05 -30.69 29.63M-31.68 29.63L-31.68 29.63Q-31.68 29.19 -31.8 28.85Q-31.92 28.51 -32.13 28.27Q-32.34 28.03 -32.66 27.91Q-32.96 27.78 -33.35 27.78L-33.35 27.78L-34.36 27.78L-34.36 31.47L-33.35 31.47Q-32.96 31.47 -32.66 31.34Q-32.34 31.22 -32.13 30.98Q-31.92 30.75 -31.8 30.4Q-31.68 30.06 -31.68 29.63M-27.94 27L-27.94 32.25L-28.92 32.25L-28.92 27L-27.94 27M-21.23 29.63L-21.23 29.63Q-21.23 30.2 -21.42 30.69Q-21.62 31.17 -21.97 31.52Q-22.32 31.87 -22.8 32.05Q-23.3 32.25 -23.89 32.25L-23.89 32.25L-25.9 32.25L-25.9 27L-23.89 27Q-23.3 27 -22.8 27.2Q-22.32 27.39 -21.97 27.73Q-21.62 28.08 -21.42 28.57Q-21.23 29.05 -21.23 29.63M-22.23 29.63L-22.23 29.63Q-22.23 29.19 -22.34 28.85Q-22.46 28.51 -22.68 28.27Q-22.89 28.03 -23.2 27.91Q-23.51 27.78 -23.89 27.78L-23.89 27.78L-24.91 27.78L-24.91 31.47L-23.89 31.47Q-23.51 31.47 -23.2 31.34Q-22.89 31.22 -22.68 30.98Q-22.46 30.75 -22.34 30.4Q-22.23 30.06 -22.23 29.63M-17.61 32.25L-19.59 32.25L-19.59 27L-17.78 27Q-17.26 27 -16.9 27.1Q-16.54 27.2 -16.3 27.38Q-16.06 27.56 -15.95 27.82Q-15.85 28.07 -15.85 28.4L-15.85 28.4Q-15.85 28.58 -15.9 28.75Q-15.95 28.92 -16.07 29.07Q-16.19 29.21 -16.36 29.33Q-16.54 29.45 -16.78 29.54L-16.78 29.54Q-15.7 29.78 -15.7 30.71L-15.7 30.71Q-15.7 31.04 -15.82 31.33Q-15.95 31.61 -16.19 31.81Q-16.44 32.02 -16.8 32.13Q-17.15 32.25 -17.61 32.25L-17.61 32.25M-17.62 29.95L-18.61 29.95L-18.61 31.49L-17.62 31.49Q-17.35 31.49 -17.17 31.42Q-16.99 31.36 -16.88 31.25Q-16.76 31.14 -16.72 30.99Q-16.67 30.85 -16.67 30.69L-16.67 30.69Q-16.67 30.51 -16.72 30.38Q-16.78 30.25 -16.89 30.14Q-17.01 30.05 -17.19 30Q-17.37 29.95 -17.62 29.95L-17.62 29.95M-18.61 27.76L-18.61 29.27L-17.84 29.27Q-17.33 29.27 -17.08 29.09Q-16.82 28.91 -16.82 28.52L-16.82 28.52Q-16.82 28.1 -17.05 27.93Q-17.28 27.76 -17.78 27.76L-17.78 27.76L-18.61 27.76M-11.43 27L-9.37 32.25L-10.12 32.25Q-10.25 32.25 -10.33 32.18Q-10.41 32.13 -10.45 32.02L-10.45 32.02L-10.84 30.96L-13.02 30.96L-13.41 32.02Q-13.44 32.11 -13.53 32.18Q-13.61 32.25 -13.73 32.25L-13.73 32.25L-14.5 32.25L-12.43 27L-11.43 27M-12.13 28.53L-12.77 30.27L-11.1 30.27L-11.74 28.52Q-11.78 28.41 -11.83 28.25Q-11.88 28.09 -11.93 27.91L-11.93 27.91Q-11.98 28.09 -12.03 28.25Q-12.08 28.41 -12.13 28.53L-12.13 28.53M-7.44 27L-7.44 27Q-7.38 27 -7.34 27.01Q-7.29 27.01 -7.26 27.03Q-7.23 27.04 -7.19 27.07Q-7.16 27.1 -7.12 27.16L-7.12 27.16L-4.37 30.67Q-4.38 30.54 -4.39 30.42Q-4.39 30.3 -4.39 30.2L-4.39 30.2L-4.39 27L-3.53 27L-3.53 32.25L-4.03 32.25Q-4.15 32.25 -4.23 32.21Q-4.3 32.18 -4.37 32.08L-4.37 32.08L-7.12 28.59Q-7.11 28.71 -7.1 28.82Q-7.1 28.93 -7.1 29.03L-7.1 29.03L-7.1 32.25L-7.96 32.25L-7.96 27L-7.44 27" fill="#465066"/><path d="M-26.21 42.75L-27.32 42.75Q-28.48 42.75 -29.32 42.54Q-30.16 42.34 -30.6 41.84Q-31.05 41.35 -31.05 40.47Q-31.05 40.09 -30.97 39.73Q-30.88 39.38 -30.75 39.05L-29.82 39.41Q-29.9 39.63 -29.96 39.89Q-30.03 40.16 -30.03 40.39Q-30.03 40.92 -29.7 41.19Q-29.37 41.46 -28.76 41.56Q-28.15 41.65 -27.32 41.65L-26.2 41.65Q-25.7 41.65 -25.23 41.6Q-24.78 41.55 -24.49 41.35Q-24.21 41.16 -24.21 40.74Q-24.21 40.45 -24.28 40.07Q-24.34 39.68 -24.41 39.31L-23.39 39.05Q-23.3 39.47 -23.25 39.88Q-23.2 40.31 -23.2 40.65Q-23.2 41.33 -23.44 41.74Q-23.67 42.17 -24.08 42.39Q-24.48 42.6 -25.03 42.67Q-25.58 42.75 -26.21 42.75ZM-26.29 37.78L-25.55 38.52L-26.29 39.26L-27.02 38.52L-26.29 37.78ZM-27.89 37.78L-27.15 38.52L-27.89 39.26L-28.63 38.52L-27.89 37.78ZM-22.06 36.07L-21.03 36.07L-21.03 40.58Q-21.03 41.18 -20.84 41.42Q-20.63 41.65 -20.14 41.65L-20.02 41.65L-20.02 42.75L-20.14 42.75Q-21.12 42.75 -21.6 42.23Q-22.06 41.72 -22.06 40.63L-22.06 36.07ZM-20.22 41.65L-19.5 41.65Q-18.93 41.65 -18.69 41.42Q-18.45 41.18 -18.45 40.65Q-18.45 40.39 -18.46 40.17Q-18.47 39.93 -18.49 39.71L-17.52 39.59L-17.43 40.82Q-17.38 41.65 -16.54 41.65L-16.44 41.65L-16.44 42.75L-16.55 42.75Q-17.06 42.75 -17.4 42.56Q-17.73 42.39 -17.94 42.06Q-18.21 42.41 -18.62 42.57Q-19.03 42.75 -19.5 42.75L-20.22 42.75L-20.22 41.65ZM-18.48 43.45L-17.73 44.19L-18.48 44.93L-19.21 44.19L-18.48 43.45ZM-20.09 43.45L-19.35 44.19L-20.09 44.93L-20.82 44.19L-20.09 43.45ZM-15.36 40.55L-15.36 36.07L-14.33 36.07L-14.33 40.56Q-14.33 41.06 -14.15 41.35Q-13.97 41.65 -13.47 41.65L-13.31 41.65L-13.31 42.75L-13.46 42.75Q-13.98 42.75 -14.3 42.57Q-14.62 42.41 -14.84 42.07Q-15.07 42.4 -15.38 42.57Q-15.67 42.75 -16.28 42.75L-16.64 42.75L-16.64 41.65L-16.3 41.65Q-15.74 41.65 -15.56 41.35Q-15.36 41.06 -15.36 40.55ZM-13.29 42.75L-13.51 42.75L-13.51 41.65L-13.32 41.65Q-13.03 41.65 -12.83 41.46Q-12.62 41.28 -12.44 40.99Q-12.26 40.7 -12.09 40.37Q-11.91 40.04 -11.68 39.75Q-11.46 39.46 -11.14 39.27Q-10.84 39.08 -10.39 39.08Q-9.61 39.08 -9.16 39.57Q-8.71 40.04 -8.57 40.73Q-8.48 41.21 -8.26 41.43Q-8.06 41.65 -7.79 41.65L-7.66 41.65L-7.66 42.75L-7.79 42.75Q-8.1 42.75 -8.39 42.62Q-8.7 42.48 -8.88 42.24Q-9.1 42.54 -9.4 42.7Q-9.69 42.86 -10.14 42.86Q-10.63 42.86 -11.04 42.65Q-11.47 42.43 -11.89 42.06Q-12.19 42.38 -12.47 42.56Q-12.76 42.75 -13.29 42.75ZM-10.36 40.15Q-10.59 40.15 -10.77 40.3Q-10.95 40.44 -11.09 40.67Q-11.23 40.9 -11.34 41.11Q-11.18 41.27 -11.03 41.39Q-10.89 41.5 -10.76 41.58Q-10.4 41.78 -10.14 41.78Q-9.82 41.78 -9.67 41.6Q-9.53 41.42 -9.53 41.11Q-9.53 40.7 -9.75 40.42Q-9.97 40.15 -10.36 40.15ZM-6.57 41.65Q-6.75 41.39 -6.86 41.03Q-6.98 40.66 -6.98 40.32Q-6.98 39.77 -6.71 39.33Q-6.44 38.89 -5.98 38.62Q-5.52 38.36 -4.98 38.36Q-4.53 38.36 -4.1 38.52Q-3.67 38.69 -3.22 39.01L-3.62 39.9Q-3.97 39.7 -4.28 39.58Q-4.6 39.46 -4.9 39.46Q-5.17 39.46 -5.42 39.57Q-5.65 39.68 -5.81 39.87Q-5.97 40.08 -5.97 40.36Q-5.97 40.64 -5.83 40.88Q-5.7 41.11 -5.54 41.26Q-5.39 41.41 -5.31 41.44Q-5.25 41.44 -5.18 41.42L-3 40.91L-3 42Q-4.2 42.37 -5.27 42.56Q-6.32 42.75 -7.35 42.75L-7.86 42.75L-7.86 41.65L-6.57 41.65Z" fill="#465066"/><path d="M4.5 46V19.5A13.5 13.5 0 0 1 8.454 9.954A23.87 23.87 0 0 1 24 3A23.87 23.87 0 0 1 39.546 9.954A13.5 13.5 0 0 1 43.5 19.5V46L40.5 46V19.5A10.5 10.5 0 0 0 37.425 12.075A20.87 20.87 0 0 0 24 6.005A20.87 20.87 0 0 0 10.575 12.075A10.5 10.5 0 0 0 7.5 19.5V46Z" fill="#8f73d6"/><path d="M11 31A13.889 13.889 0 0 1 37 31A13.889 13.889 0 0 1 11 31ZM14.27 31A10.889 10.889 0 0 0 33.73 31A10.889 10.889 0 0 0 14.27 31ZM17.25 31A6.75 6.75 0 1 1 30.75 31A6.75 6.75 0 1 1 17.25 31ZM22.518 27.421L20.421 27.421L20.421 29.518L18.939 31L20.421 32.482L20.421 34.579L22.518 34.579L24 36.061L25.482 34.579L27.579 34.579L27.579 32.482L29.061 31L27.579 29.518L27.579 27.421L25.482 27.421L24 25.939Z" fill="#6b4bb5"/><path d="M24 27.139L25.131 28.27L26.73 28.27L26.73 29.869L27.861 31L26.73 32.131L26.73 33.73L25.131 33.73L24 34.861L22.869 33.73L21.27 33.73L21.27 32.131L20.139 31L21.27 29.869L21.27 28.27L22.869 28.27Z" fill="#e0a334"/></svg>
